<?xml version="1.0" encoding="utf-8"?>
<!-- Generator: Adobe Illustrator 24.0.0, SVG Export Plug-In . SVG Version: 6.00 Build 0)  -->
<svg version="1.1" id="Ebene_1" xmlns="http://www.w3.org/2000/svg" xmlns:xlink="http://www.w3.org/1999/xlink" x="0px" y="0px"
	 viewBox="0 0 152.87 109.37" style="enable-background:new 0 0 152.87 109.37;" xml:space="preserve">
<style type="text/css">
	.st0{fill:#FFFFFF;}
	.st1{opacity:0.1;fill:#FFFFFF;}
</style>
<g>
	<path class="st0" d="M37.7,63.2L24.31,42.23h12.46l7.46,12.83h0.12l7.59-12.83h11.84L50.72,63.08l14.62,23.26H52.44l-8.27-14.93
		h-0.12l-8.58,14.93h-12.4L37.7,63.2z"/>
	<path class="st0" d="M67.62,70.79V42.23h10.92v28.93c0,4.32,2.22,7.22,7.59,7.22c5.06,0,7.46-3.08,7.46-7.4V42.23h10.92v28.56
		c0,10.18-6.11,16.35-18.38,16.35C73.79,87.14,67.62,81.09,67.62,70.79z M81.19,32.36h9.62l6.6,7.71h-8.45l-2.78-3.33h-0.12
		l-2.84,3.33h-8.64L81.19,32.36z"/>
	<path class="st0" d="M111.48,42.23h21.1c8.76,0,15.42,4.5,15.42,12.71c0,5.12-2.53,8.88-7.65,10.67v0.19
		c3.83,1.29,5.8,3.7,6.42,8.08c0.93,5.8,0.31,11.35,1.85,11.91v0.56H138c-1.17-0.68-0.99-5.86-1.67-10.24
		c-0.56-4.07-2.65-6.29-7.34-6.29h-6.6v16.53h-10.92V42.23z M130.6,61.72c4.32,0,6.54-2.04,6.54-5.37c0-3.21-2.1-5.49-6.29-5.49
		h-8.45v10.86H130.6z"/>
</g>
<rect x="22.01" y="24.34" class="st0" width="127.18" height="5.99"/>
<g>
	<path class="st0" d="M34.03,4.89h-3.48V2.38h9.94v2.51h-3.51v9.44h-2.96V4.89z"/>
	<path class="st0" d="M44.94,2.38h2.96v4.53h4.19V2.38h2.96v11.95h-2.96V9.35H47.9v4.98h-2.96V2.38z"/>
	<path class="st0" d="M60.03,2.38h9.06v2.44h-6.1v2.14h5.23v2.31h-5.23v2.56h6.2v2.51h-9.16V2.38z"/>
	<path class="st0" d="M80.8,2.38h2.97l3.54,6c0.18,0.33,0.82,1.52,0.82,1.52h0.03c0,0-0.03-1.44-0.03-1.85V2.38h2.89v11.95h-2.97
		l-3.51-5.92c-0.2-0.32-0.85-1.6-0.85-1.6h-0.03c0,0,0.03,1.54,0.03,1.96v5.56H80.8V2.38z"/>
	<path class="st0" d="M96.03,2.38h2.96v11.95h-2.96V2.38z"/>
	<path class="st0" d="M102.96,2.38h2.97l3.54,6c0.18,0.33,0.82,1.52,0.82,1.52h0.03c0,0-0.03-1.44-0.03-1.85V2.38h2.89v11.95h-2.97
		l-3.51-5.92c-0.2-0.32-0.85-1.6-0.85-1.6h-0.03c0,0,0.03,1.54,0.03,1.96v5.56h-2.89V2.38z"/>
	<path class="st0" d="M118.17,2.38h9.06v2.44h-6.1v2.14h5.23v2.31h-5.23v2.56h6.2v2.51h-9.16V2.38z"/>
</g>
<path class="st1" d="M17.94,49.4v27.95h134.93V49.4H17.94z M151.04,75.36H20.03v-24h131.01V75.36z"/>
<rect x="0.03" y="9.37" class="st1" width="11.99" height="3.01"/>
<rect y="106.36" class="st1" width="11.99" height="3.01"/>
<rect x="30.04" y="106.37" class="st1" width="119.03" height="2"/>
</svg>
